Simulation
nRows=32
nColumns=15
endheader
time  TH_x TH_y TH_z SC_y  SC_z  SC_x  AC_y  AC_z  AC_x  GH_y  GH_z  GH_yy  EL_x  PS_y
1.7000000000000002  0.000000  0.000000  0.000000  -30.849234174718013  10.479595396148484  15.061706699230298  63.686721601450124  14.46676603079738  1.2460369570311032  53.731619785117644  58.35643553455674  -51.152778770704636  23.054336566232163  0.000000
1.7340000000000002  0.000000  0.000000  0.000000  -30.810953283354994  10.482817241381222  14.90097865281273  63.59356542649576  14.611880293625184  1.3019815419571716  53.57331246695445  58.20813252145205  -50.744366556149046  23.05558537800236  0.000000
1.7680000000000002  0.000000  0.000000  0.000000  -30.834642144017362  10.497947116167088  14.77167168050919  63.53573944739437  14.694308923968787  1.3244330691348651  53.37034860994902  57.95465237432292  -50.268067977706245  23.060337532964358  0.000000
1.802  0.000000  0.000000  0.000000  -30.776450529568667  10.464165620088604  14.59972318709732  63.45995361998997  14.735062474226226  1.3099184909099564  53.14090672547869  57.63945539512143  -49.689447720285614  23.0701674054136  0.000000
1.836  0.000000  0.000000  0.000000  -30.781575486449892  10.43775958902837  14.452497325522954  63.40768017700746  14.722389142154615  1.2732412634250678  52.865941438677  57.2169819132214  -49.02590329664283  23.089351578731616  0.000000
1.87  0.000000  0.000000  0.000000  -30.70336339577895  10.35794055666557  14.255564679611444  63.34236145330849  14.67679114505165  1.1894346354576064  52.56057993211894  56.74677130597373  -48.27778966163391  23.11008755133641  0.000000
1.9040000000000001  0.000000  0.000000  0.000000  -30.688107823200966  10.277112302202692  14.077051178065844  63.292608913285044  14.585457668194813  1.0859435923898866  52.21051514165193  56.1702745449218  -47.43614235164994  23.142558465455302  0.000000
1.9380000000000002  0.000000  0.000000  0.000000  -30.58760570295346  10.135982192995836  13.841240198417898  63.23088734403525  14.467736712438501  0.927941862204976  51.82754589602827  55.55595557849633  -46.52186501916395  23.17538033499244  0.000000
1.9720000000000002  0.000000  0.000000  0.000000  -30.548955476426517  9.984792206241362  13.619945678241603  63.17904740424204  14.311165252527541  0.7482372209896977  51.40068751233381  54.83707995115313  -45.51129150404425  23.22097519506643  0.000000
2.0060000000000002  0.000000  0.000000  0.000000  -30.42349972969062  9.767599558197755  13.336498804407055  63.113581376556255  14.133430465121982  0.5108355124064968  50.93860410997024  54.085608519829194  -44.436356254197484  23.26604894754631  0.000000
2.04  0.000000  0.000000  0.000000  -30.359811634220947  9.53469727950584  13.06617880441258  63.05317039280752  13.922743111210908  0.2506595551644664  50.432746236208544  53.23084474506176  -43.2672285516724  23.324035129589703  0.000000
2.0740000000000003  0.000000  0.000000  0.000000  -30.21068291504461  9.235105051310162  12.731787457247844  62.97546622088958  13.69495796003255  -0.06412211449681153  49.88855673030155  52.3455165506144  -42.03839254338241  23.380374798595984  0.000000
2.108  0.000000  0.000000  0.000000  -30.127747089936094  8.917434903651014  12.41460406942951  62.90071747337548  13.439308787738746  -0.4001139892091482  49.3015298254659  51.358521617510185  -40.72205253080931  23.448363517392163  0.000000
2.1420000000000003  0.000000  0.000000  0.000000  -29.96680316522581  8.535932302197306  12.037130198422226  62.809768024909204  13.172286295124813  -0.7812413285591373  48.6709143091459  50.34108867747395  -39.348679087351826  23.5151380594597  0.000000
2.176  0.000000  0.000000  0.000000  -29.88808877811958  8.13844364592736  11.686948003197148  62.728364518081975  12.881816720733847  -1.174572347245807  47.997333693826285  49.22385784996541  -37.89578299633134  23.59090607926128  0.000000
2.21  0.000000  0.000000  0.000000  -29.750142774954003  7.687462781907335  11.28953725949602  62.63732761737836  12.583059468407809  -1.595738570087907  47.27756308827418  48.074546375903665  -36.38770937691766  23.665831622195284  0.000000
2.244  0.000000  0.000000  0.000000  -29.727586559003615  7.23266325237228  10.938039767234383  62.57269022296155  12.258782899511635  -2.008778834926968  46.51940652763742  46.826958254591865  -34.810363473134146  23.74888282148294  0.000000
2.278  0.000000  0.000000  0.000000  -29.684336872818818  6.747831303012187  10.563193225600598  62.51114295819537  11.920535429423195  -2.4191446781923585  45.73434886402409  45.54340689478373  -33.19524849113679  23.831764509946087  0.000000
2.3120000000000003  0.000000  0.000000  0.000000  -29.771827988947052  6.284732525161319  10.232582087006893  62.478939312759  11.559972687977456  -2.7895214422042147  44.92593827050388  44.167142813426224  -31.53165913194916  23.923690774429073  0.000000
2.346  0.000000  0.000000  0.000000  -29.84348868025072  5.819722554148907  9.879964197440955  62.446384377030775  11.184981155594137  -3.1274025050692598  44.112054854279776  42.758896593836596  -29.85232114298307  24.01818690526737  0.000000
2.3800000000000003  0.000000  0.000000  0.000000  -30.005444575776615  5.397207433846724  9.566647664020676  62.427930082926714  10.792523408367664  -3.418067510964456  43.284417769689  41.26345829605344  -28.150331989820668  24.120614672473376  0.000000
2.414  0.000000  0.000000  0.000000  -30.10715025505629  4.996742690718346  9.240624965822844  62.39256245117253  10.376821025898145  -3.6714550693312824  42.452330789443614  39.737597107447215  -26.441279674470877  24.22036133207045  0.000000
2.4480000000000004  0.000000  0.000000  0.000000  -30.273015827693918  4.65238129097631  8.943016068782853  62.35423374389749  9.949980603086027  -3.8751908758272435  41.61664886813886  38.13758596088999  -24.72574837160812  24.33161714273555  0.000000
2.482  0.000000  0.000000  0.000000  -30.34844255298643  4.337763795613741  8.624533903930033  62.27685407122086  9.50713226768313  -4.0471954734213185  40.774193240561544  36.51860511287717  -23.003328308241535  24.443051547585682  0.000000
2.516  0.000000  0.000000  0.000000  -30.472423235833517  4.065694392051516  8.318623374066517  62.17937168665814  9.070462880081623  -4.193413086611098  39.923589052129444  34.84806491961877  -21.27192470254817  24.562228934809948  0.000000
2.5500000000000003  0.000000  0.000000  0.000000  -30.49398157800053  3.8003715408958874  7.9805724547732995  62.02011177426697  8.632578086400082  -4.341017176040288  39.04428199805626  33.177195183951575  -19.511489201966384  24.68138632358187  0.000000
2.584  0.000000  0.000000  0.000000  -30.572654390643038  3.5420500300661084  7.660962123961908  61.83134324343818  8.198296344224437  -4.511216100980002  38.14187290987319  31.478388713893583  -17.723949336888463  24.803250030205486  0.000000
2.6180000000000003  0.000000  0.000000  0.000000  -30.568095029598663  3.2580559745884172  7.3215052054614995  61.578151173249985  7.754608101955216  -4.717226475549415  37.21001222354042  29.790719394683194  -15.89941381252704  24.924052041843463  0.000000
2.652  0.000000  0.000000  0.000000  -30.62932201085648  2.955241235500056  7.002418575736473  61.29925691026224  7.303031970120357  -4.9727475620714605  36.27290947117082  28.087389286164694  -14.062653756669553  25.044444976687792  0.000000
2.6860000000000004  0.000000  0.000000  0.000000  -30.616345379189465  2.607647341664832  6.6649399767880295  60.96877794378473  6.836519495238441  -5.26983858081471  35.338757319438876  26.388910135468326  -12.219702067735003  25.16602247173958  0.000000
2.72  0.000000  0.000000  0.000000  -30.669719238950695  2.2201242566063355  6.334322283820181  60.62860027524607  6.361892023515329  -5.619311657044608  34.4562549785269  24.67119517612609  -10.425055352226778  25.287068270837125  0.000000
2.754  0.000000  0.000000  0.000000  -30.647358450904612  1.7866924324060462  5.9684556970345675  60.24173579553438  5.872149392983421  -5.988967445446068  33.64075225773834  22.941049180742322  -8.697955370296764  25.414047337787377  0.000000
